<svg width="180" height="84" viewBox="0 0 180 84" fill="none" xmlns="http://www.w3.org/2000/svg">
<mask id="path-1-inside-1_116_424" fill="white">
<path fill-rule="evenodd" clip-rule="evenodd" d="M36.3393 57.3335L39.7209 65.1675L42.1632 57.3335L45.4704 52.0293C50.1841 53.7891 53.4354 57.5167 53.4354 61.8308C53.4354 67.84 47.127 72.7115 39.3452 72.7115C31.5634 72.7115 25.255 67.84 25.255 61.8308C25.255 57.8795 27.9826 54.4201 32.0631 52.5141L36.3393 57.3335Z"/>
</mask>
<path d="M39.7209 65.1675L38.546 65.6747L39.9147 68.8456L40.9426 65.5484L39.7209 65.1675ZM36.3393 57.3335L37.5142 56.8263L37.4328 56.6377L37.2965 56.4841L36.3393 57.3335ZM42.1632 57.3335L41.0773 56.6564L40.9904 56.7958L40.9415 56.9526L42.1632 57.3335ZM45.4704 52.0293L45.918 50.8304L44.938 50.4645L44.3845 51.3522L45.4704 52.0293ZM32.0631 52.5141L33.0203 51.6648L32.3866 50.9506L31.5215 51.3547L32.0631 52.5141ZM40.8958 64.6603L37.5142 56.8263L35.1643 57.8406L38.546 65.6747L40.8958 64.6603ZM40.9415 56.9526L38.4992 64.7866L40.9426 65.5484L43.3849 57.7143L40.9415 56.9526ZM44.3845 51.3522L41.0773 56.6564L43.2491 58.0105L46.5563 52.7064L44.3845 51.3522ZM45.0228 53.2282C49.4124 54.867 52.1557 58.2172 52.1557 61.8308H54.7151C54.7151 56.8163 50.9557 52.7112 45.918 50.8304L45.0228 53.2282ZM52.1557 61.8308C52.1557 66.8453 46.7476 71.4317 39.3452 71.4317V73.9912C47.5065 73.9912 54.7151 68.8347 54.7151 61.8308H52.1557ZM39.3452 71.4317C31.9429 71.4317 26.5347 66.8453 26.5347 61.8308H23.9753C23.9753 68.8347 31.184 73.9912 39.3452 73.9912V71.4317ZM26.5347 61.8308C26.5347 58.5178 28.8306 55.4364 32.6046 53.6736L31.5215 51.3547C27.1345 53.4038 23.9753 57.2411 23.9753 61.8308H26.5347ZM37.2965 56.4841L33.0203 51.6648L31.1058 53.3635L35.382 58.1828L37.2965 56.4841Z" fill="#34A853" mask="url(#path-1-inside-1_116_424)"/>
<path d="M42.0289 44.0685L74.761 32.2813M42.0289 44.0685L58.395 31.148M42.0289 44.0685V1M42.0289 44.0685V60.7882L50.0079 67.6429M72.8569 20.3491L58.395 31.148M58.395 31.148V9.16035" stroke="#34A853" stroke-width="1.27972" stroke-linecap="round"/>
<path d="M42.0109 32.5361L49.6272 23.529V6.64062" stroke="#34A853" stroke-width="1.27972" stroke-linecap="round"/>
<path d="M36.6614 44.0685L3.92929 32.2814M36.6614 44.0685L20.2953 31.148M36.6614 44.0685V1M36.6614 44.0685V60.7882L30.9673 69.1661M5.83337 20.3491L20.2953 31.148M20.2953 31.148V9.16035" stroke="#34A853" stroke-width="1.27972" stroke-linecap="round"/>
<path d="M36.6793 32.5361L29.063 23.529V6.64062" stroke="#34A853" stroke-width="1.27972" stroke-linecap="round"/>
<path d="M26.9349 65.088L30.6639 62.3703L33.2552 59.1469M51.8999 63.6975L48.5886 60.4442C48.3962 60.2553 48.2416 60.0314 48.133 59.7846L46.9069 56.998M46.9069 70.2706L44.3788 67.4897M34.2664 71.4714L36.3267 68.8052C36.3841 68.7309 36.4153 68.6395 36.4153 68.5455V67.4897" stroke="#34A853" stroke-width="0.637168" stroke-linecap="round"/>
<circle cx="58.4099" cy="6.05561" r="1.13765" fill="#34A853"/>
<circle cx="63.466" cy="24.5126" r="1.13765" fill="#34A853"/>
<circle cx="10.6287" cy="20.8466" r="1.13765" fill="#34A853"/>
<circle cx="22.5107" cy="16.7998" r="1.13765" fill="#34A853"/>
<circle cx="53.8592" cy="37.7841" r="1.13765" fill="#34A853"/>
<path fill-rule="evenodd" clip-rule="evenodd" d="M59.6188 19.0881C59.3724 17.7164 59.6953 16.2494 60.6315 15.0732C61.5671 13.8977 62.9232 13.2538 64.3145 13.1856C64.5609 14.5573 64.238 16.0243 63.3019 17.2005C62.3663 18.376 61.0101 19.0198 59.6188 19.0881Z" fill="#34A853"/>
<path fill-rule="evenodd" clip-rule="evenodd" d="M71.665 20.5251C70.5385 19.9868 69.6406 18.9848 69.2745 17.6889C68.9086 16.3933 69.1493 15.0699 69.8272 14.0219C70.9537 14.5603 71.8517 15.5623 72.2177 16.8582C72.5837 18.1537 72.3429 19.4771 71.665 20.5251Z" fill="#34A853"/>
<path fill-rule="evenodd" clip-rule="evenodd" d="M23.825 21.0482C25.0247 20.7031 26.3612 20.8563 27.4952 21.5823C28.629 22.3082 29.3275 23.4577 29.5163 24.6915C28.3166 25.0366 26.98 24.8834 25.8461 24.1574C24.7123 23.4315 24.0138 22.282 23.825 21.0482Z" fill="#34A853"/>
<path fill-rule="evenodd" clip-rule="evenodd" d="M23.825 21.0482C25.0247 20.7031 26.3612 20.8563 27.4952 21.5823C28.629 22.3082 29.3275 23.4577 29.5163 24.6915C28.3166 25.0366 26.98 24.8834 25.8461 24.1574C24.7123 23.4315 24.0138 22.282 23.825 21.0482Z" fill="#34A853"/>
<path fill-rule="evenodd" clip-rule="evenodd" d="M23.825 21.0482C25.0247 20.7031 26.3612 20.8563 27.4952 21.5823C28.629 22.3082 29.3275 23.4577 29.5163 24.6915C28.3166 25.0366 26.98 24.8834 25.8461 24.1574C24.7123 23.4315 24.0138 22.282 23.825 21.0482Z" fill="#34A853"/>
<path fill-rule="evenodd" clip-rule="evenodd" d="M23.825 21.0482C25.0247 20.7031 26.3612 20.8563 27.4952 21.5823C28.629 22.3082 29.3275 23.4577 29.5163 24.6915C28.3166 25.0366 26.98 24.8834 25.8461 24.1574C24.7123 23.4315 24.0138 22.282 23.825 21.0482Z" fill="#34A853"/>
<path fill-rule="evenodd" clip-rule="evenodd" d="M23.825 21.0482C25.0247 20.7031 26.3612 20.8563 27.4952 21.5823C28.629 22.3082 29.3275 23.4577 29.5163 24.6915C28.3166 25.0366 26.98 24.8834 25.8461 24.1574C24.7123 23.4315 24.0138 22.282 23.825 21.0482Z" fill="#34A853"/>
<path fill-rule="evenodd" clip-rule="evenodd" d="M23.825 21.0482C25.0247 20.7031 26.3612 20.8563 27.4952 21.5823C28.629 22.3082 29.3275 23.4577 29.5163 24.6915C28.3166 25.0366 26.98 24.8834 25.8461 24.1574C24.7123 23.4315 24.0138 22.282 23.825 21.0482Z" fill="#34A853"/>
<path fill-rule="evenodd" clip-rule="evenodd" d="M23.825 21.0482C25.0247 20.7031 26.3612 20.8563 27.4952 21.5823C28.629 22.3082 29.3275 23.4577 29.5163 24.6915C28.3166 25.0366 26.98 24.8834 25.8461 24.1574C24.7123 23.4315 24.0138 22.282 23.825 21.0482Z" fill="#34A853"/>
<path fill-rule="evenodd" clip-rule="evenodd" d="M23.825 21.0482C25.0247 20.7031 26.3612 20.8563 27.4952 21.5823C28.629 22.3082 29.3275 23.4577 29.5163 24.6915C28.3166 25.0366 26.98 24.8834 25.8461 24.1574C24.7123 23.4315 24.0138 22.282 23.825 21.0482Z" fill="#34A853"/>
<path fill-rule="evenodd" clip-rule="evenodd" d="M20.9827 25.0512C21.1362 23.8513 20.7937 22.6313 19.9339 21.726C19.0741 20.8207 17.8735 20.4158 16.6674 20.5072C16.5138 21.7071 16.8563 22.9271 17.7162 23.8324C18.576 24.7377 19.7765 25.1426 20.9827 25.0512Z" fill="#34A853"/>
<path fill-rule="evenodd" clip-rule="evenodd" d="M54.5682 38.7616C55.6203 38.0898 56.9452 37.8567 58.2387 38.2303C59.5321 38.604 60.5286 39.5075 61.0604 40.6367C60.0083 41.3085 58.6834 41.5416 57.3899 41.168C56.0965 40.7944 55.1 39.8908 54.5682 38.7616Z" fill="#34A853"/>
<path fill-rule="evenodd" clip-rule="evenodd" d="M64.0347 39.2242C65.2578 38.9744 66.3716 38.2195 67.0403 37.0507C67.7089 35.8823 67.7955 34.54 67.3914 33.3592C66.1682 33.6089 65.0545 34.3638 64.3857 35.5326C63.7172 36.701 63.6306 38.0433 64.0347 39.2242Z" fill="#34A853"/>
<path fill-rule="evenodd" clip-rule="evenodd" d="M50.9089 26.516C49.9556 27.3218 48.6734 27.7291 47.3417 27.5308C46.01 27.3325 44.9021 26.5695 44.2249 25.521C45.1783 24.7151 46.4604 24.3079 47.7922 24.5062C49.1238 24.7044 50.2317 25.4675 50.9089 26.516Z" fill="#34A853"/>
<path fill-rule="evenodd" clip-rule="evenodd" d="M13.9018 25.7945C13.114 24.8256 11.929 24.1877 10.5831 24.1361C9.23722 24.0845 8.00685 24.6298 7.14723 25.5355C7.93499 26.5044 9.12003 27.1423 10.4659 27.1939C11.8118 27.2455 13.0422 26.7002 13.9018 25.7945Z" fill="#34A853"/>
<path fill-rule="evenodd" clip-rule="evenodd" d="M14.4934 39.5441C15.1885 38.5069 16.3096 37.7627 17.6449 37.5874C18.98 37.412 20.2552 37.8415 21.1945 38.6638C20.4994 39.701 19.3782 40.4452 18.043 40.6205C16.7079 40.7959 15.4327 40.3665 14.4934 39.5441Z" fill="#34A853"/>
<path fill-rule="evenodd" clip-rule="evenodd" d="M24.5419 29.0265C25.5272 29.7936 26.19 30.9649 26.27 32.3094C26.35 33.6531 25.8315 34.894 24.9452 35.7724C23.9598 35.0053 23.297 33.834 23.217 32.4895C23.1371 31.1459 23.6555 29.905 24.5419 29.0265Z" fill="#34A853"/>
<path fill-rule="evenodd" clip-rule="evenodd" d="M24.8635 10.028C24.9141 11.2754 25.4809 12.4957 26.5276 13.343C27.5741 14.1903 28.8855 14.4906 30.1161 14.2806C30.0655 13.0331 29.4986 11.8128 28.452 10.9655C27.4055 10.1183 26.094 9.81792 24.8635 10.028Z" fill="#34A853"/>
<path fill-rule="evenodd" clip-rule="evenodd" d="M27.7312 37.209C28.5317 36.2508 29.7248 35.6287 31.0711 35.5948C32.4174 35.5609 33.6403 36.1222 34.4879 37.0389C33.6875 37.9972 32.4943 38.6193 31.1481 38.6532C29.8018 38.687 28.5789 38.1258 27.7312 37.209Z" fill="#34A853"/>
<path fill-rule="evenodd" clip-rule="evenodd" d="M41.6968 18.5309C41.7245 17.2826 42.2689 16.0519 43.3001 15.1855C44.3309 14.3193 45.6367 13.995 46.8709 14.1825C46.8432 15.4309 46.2987 16.6616 45.2676 17.528C44.2367 18.3942 42.931 18.7185 41.6968 18.5309Z" fill="#34A853"/>
<path fill-rule="evenodd" clip-rule="evenodd" d="M50.1228 21.5404C49.5043 20.4558 49.338 19.1206 49.7763 17.8472C50.2145 16.5741 51.1671 15.6243 52.3217 15.15C52.9402 16.2346 53.1065 17.5698 52.6682 18.8432C52.23 20.1162 51.2774 21.0661 50.1228 21.5404Z" fill="#34A853"/>
<path fill-rule="evenodd" clip-rule="evenodd" d="M49.56 38.8716C48.7426 37.9278 48.3201 36.6503 48.5026 35.3161C48.6851 33.9822 49.4349 32.8654 50.4753 32.1758C51.2927 33.1196 51.7153 34.3971 51.5328 35.7313C51.3503 37.0652 50.6004 38.182 49.56 38.8716Z" fill="#34A853"/>
<path fill-rule="evenodd" clip-rule="evenodd" d="M46.8903 12.2476C46.9064 10.9992 47.4393 9.76365 48.4621 8.88771C49.4849 8.01188 50.7875 7.67535 52.0234 7.85129C52.0073 9.09971 51.4744 10.3353 50.4515 11.2112C49.4288 12.087 48.1262 12.4236 46.8903 12.2476Z" fill="#34A853"/>
<path fill-rule="evenodd" clip-rule="evenodd" d="M36.5482 23.4941C35.328 23.2306 34.2228 22.4633 33.5673 21.2871C32.9118 20.1112 32.8402 18.7679 33.2576 17.5916C34.4779 17.8551 35.583 18.6224 36.2386 19.7985C36.8941 20.9745 36.9657 22.3178 36.5482 23.4941Z" fill="#34A853"/>
<path fill-rule="evenodd" clip-rule="evenodd" d="M58.1441 27.6299C58.6918 26.3488 58.7064 24.8473 58.0586 23.4913C57.4109 22.1357 56.234 21.2037 54.8935 20.8247C54.3458 22.1058 54.3313 23.6073 54.9791 24.9632C55.6268 26.3189 56.8037 27.2509 58.1441 27.6299Z" fill="#34A853"/>
<path d="M30.0188 10.6292C30.1447 10.4385 30.4246 10.4385 30.5505 10.6292L30.6577 10.7915L30.8232 10.6743C31.0118 10.5409 31.2752 10.6461 31.3199 10.8728L31.3533 11.0423L31.5398 10.9922C31.7686 10.9308 31.982 11.1318 31.9345 11.3638L31.9045 11.5099L32.0742 11.524C32.3164 11.5441 32.4478 11.8171 32.3124 12.0189L32.237 12.1313L32.2443 12.1347C32.5238 12.263 32.5582 12.6465 32.3059 12.8225V12.8225L32.4005 12.9184C32.5726 13.0929 32.4914 13.3884 32.2542 13.4504L32.1017 13.4902L32.1562 13.6196C32.2493 13.841 32.0733 14.0819 31.8341 14.0604L31.6522 14.0442V14.0442C31.6533 14.3524 31.3332 14.557 31.054 14.4265L31.0179 14.4096L30.9476 14.5803C30.8603 14.7922 30.5845 14.8454 30.4247 14.6811L30.2847 14.5372L30.2574 14.5652C30.0443 14.7843 29.6766 14.7134 29.5601 14.4308L29.5514 14.4096L29.37 14.4944C29.1583 14.5933 28.9157 14.4382 28.9165 14.2046L28.9171 14.0442L28.7352 14.0604C28.496 14.0819 28.3201 13.841 28.4132 13.6196L28.4676 13.4902L28.4454 13.4844C28.1503 13.4073 28.0492 13.0397 28.2634 12.8225V12.8225L28.1498 12.7433C27.9478 12.6023 27.9753 12.2953 28.1991 12.1925L28.3323 12.1313L28.2569 12.0189C28.1216 11.8171 28.253 11.5441 28.4952 11.524L28.6648 11.5099L28.6349 11.3638C28.5874 11.1318 28.8007 10.9308 29.0295 10.9922L29.2161 11.0423L29.2495 10.8728C29.2941 10.6461 29.5576 10.5409 29.7461 10.6743L29.9117 10.7915L30.0188 10.6292Z" fill="white"/>
<path d="M31.109 11.2402V11.2402C30.9363 11.512 31.1325 11.8672 31.4544 11.8657L31.5531 11.8653" stroke="#34A853" stroke-width="0.106195" stroke-linecap="round"/>
<path d="M31.4705 12.6133V12.6133C31.2977 12.885 31.4939 13.2402 31.8159 13.2388L31.9145 13.2383" stroke="#34A853" stroke-width="0.106195" stroke-linecap="round"/>
<path d="M30.3276 13.5214V13.5214C30.2806 13.727 30.4367 13.9229 30.6476 13.9229L30.8379 13.9229" stroke="#34A853" stroke-width="0.106195" stroke-linecap="round"/>
<path d="M29.3358 11.6869V11.6869C29.5711 11.9273 29.9799 11.7899 30.0223 11.4562L30.0499 11.2383" stroke="#34A853" stroke-width="0.106195" stroke-linecap="round"/>
<path d="M30.2344 12.3242L30.204 12.4003C30.0992 12.6628 30.4069 12.8964 30.6315 12.725V12.725" stroke="#34A853" stroke-width="0.106195" stroke-linecap="round"/>
<path d="M29.4594 13.5508L29.3743 13.6531C29.2262 13.8311 29.4306 14.0834 29.6355 13.9756V13.9756" stroke="#34A853" stroke-width="0.106195" stroke-linecap="round"/>
<path d="M28.905 12.4961V12.4961C28.9027 12.7948 29.2481 12.9625 29.4814 12.776L29.5553 12.7171" stroke="#34A853" stroke-width="0.106195" stroke-linecap="round"/>
<path d="M30.0188 10.6292C30.1447 10.4385 30.4246 10.4385 30.5505 10.6292L30.6577 10.7915L30.8232 10.6743C31.0118 10.5409 31.2752 10.6461 31.3199 10.8728L31.3533 11.0423L31.5398 10.9922C31.7686 10.9308 31.982 11.1318 31.9345 11.3638L31.9045 11.5099L32.0742 11.524C32.3164 11.5441 32.4478 11.8171 32.3124 12.0189L32.237 12.1313L32.2443 12.1347C32.5238 12.263 32.5582 12.6465 32.3059 12.8225V12.8225L32.4005 12.9184C32.5726 13.0929 32.4914 13.3884 32.2542 13.4504L32.1017 13.4902L32.1562 13.6196C32.2493 13.841 32.0733 14.0819 31.8341 14.0604L31.6522 14.0442V14.0442C31.6533 14.3524 31.3332 14.557 31.054 14.4265L31.0179 14.4096L30.9476 14.5803C30.8603 14.7922 30.5845 14.8454 30.4247 14.6811L30.2847 14.5372L30.2574 14.5652C30.0443 14.7843 29.6766 14.7134 29.5601 14.4308L29.5514 14.4096L29.37 14.4944C29.1583 14.5933 28.9157 14.4382 28.9165 14.2046L28.9171 14.0442L28.7352 14.0604C28.496 14.0819 28.3201 13.841 28.4132 13.6196L28.4676 13.4902L28.4454 13.4844C28.1503 13.4073 28.0492 13.0397 28.2634 12.8225V12.8225L28.1498 12.7433C27.9478 12.6023 27.9753 12.2953 28.1991 12.1925L28.3323 12.1313L28.2569 12.0189C28.1216 11.8171 28.253 11.5441 28.4952 11.524L28.6648 11.5099L28.6349 11.3638C28.5874 11.1318 28.8007 10.9308 29.0295 10.9922L29.2161 11.0423L29.2495 10.8728C29.2941 10.6461 29.5576 10.5409 29.7461 10.6743L29.9117 10.7915L30.0188 10.6292Z" fill="white"/>
<path d="M31.109 11.2402V11.2402C30.9363 11.512 31.1325 11.8672 31.4544 11.8657L31.5531 11.8653" stroke="#FB8500" stroke-width="0.106195" stroke-linecap="round"/>
<path d="M31.4705 12.6133V12.6133C31.2977 12.885 31.4939 13.2402 31.8159 13.2388L31.9145 13.2383" stroke="#FB8500" stroke-width="0.106195" stroke-linecap="round"/>
<path d="M30.3276 13.5214V13.5214C30.2806 13.727 30.4367 13.9229 30.6476 13.9229L30.8379 13.9229" stroke="#FB8500" stroke-width="0.106195" stroke-linecap="round"/>
<path d="M29.3358 11.6869V11.6869C29.5711 11.9273 29.9799 11.7899 30.0223 11.4562L30.0499 11.2383" stroke="#FB8500" stroke-width="0.106195" stroke-linecap="round"/>
<path d="M30.2344 12.3242L30.204 12.4003C30.0992 12.6628 30.4069 12.8964 30.6315 12.725V12.725" stroke="#FB8500" stroke-width="0.106195" stroke-linecap="round"/>
<path d="M29.4594 13.5508L29.3743 13.6531C29.2262 13.8311 29.4306 14.0834 29.6355 13.9756V13.9756" stroke="#FB8500" stroke-width="0.106195" stroke-linecap="round"/>
<path d="M28.905 12.4961V12.4961C28.9027 12.7948 29.2481 12.9625 29.4814 12.776L29.5553 12.7171" stroke="#FB8500" stroke-width="0.106195" stroke-linecap="round"/>
<path d="M45.4402 23.1449C45.5661 22.9541 45.846 22.9541 45.9719 23.1449L46.079 23.3071L46.2446 23.1899C46.4331 23.0565 46.6966 23.1617 46.7412 23.3884L46.7746 23.5579L46.9612 23.5078C47.19 23.4465 47.4034 23.6474 47.3558 23.8794L47.3259 24.0255L47.4955 24.0396C47.7377 24.0597 47.8692 24.3327 47.7338 24.5345L47.6584 24.6469L47.6657 24.6503C47.9452 24.7787 47.9795 25.1621 47.7273 25.3382V25.3382L47.8218 25.434C47.994 25.6086 47.9128 25.904 47.6756 25.966L47.5231 26.0058L47.5775 26.1352C47.6707 26.3566 47.4947 26.5975 47.2555 26.5761L47.0736 26.5598V26.5598C47.0747 26.868 46.7546 27.0726 46.4754 26.9421L46.4393 26.9252L46.369 27.0959C46.2817 27.3078 46.0059 27.361 45.8461 27.1967L45.706 27.0528L45.6787 27.0809C45.4657 27.2999 45.0979 27.229 44.9815 26.9465L44.9728 26.9252L44.7914 27.01C44.5797 27.1089 44.3371 26.9539 44.3379 26.7202L44.3385 26.5598L44.1566 26.5761C43.9174 26.5975 43.7414 26.3566 43.8345 26.1352L43.889 26.0058L43.8668 26C43.5717 25.9229 43.4706 25.5553 43.6848 25.3382V25.3382L43.5712 25.2589C43.3692 25.118 43.3967 24.8109 43.6205 24.7081L43.7537 24.6469L43.6783 24.5345C43.5429 24.3327 43.6744 24.0597 43.9166 24.0396L44.0862 24.0255L44.0563 23.8794C44.0087 23.6474 44.2221 23.4465 44.4509 23.5078L44.6375 23.5579L44.6709 23.3884C44.7155 23.1617 44.979 23.0565 45.1675 23.1899L45.3331 23.3071L45.4402 23.1449Z" fill="white"/>
<path d="M46.5304 23.7559V23.7559C46.3577 24.0276 46.5538 24.3828 46.8758 24.3813L46.9745 24.3809" stroke="#FB8500" stroke-width="0.106195" stroke-linecap="round"/>
<path d="M46.8918 25.1289V25.1289C46.7191 25.4006 46.9153 25.7559 47.2373 25.7544L47.3359 25.7539" stroke="#FB8500" stroke-width="0.106195" stroke-linecap="round"/>
<path d="M45.749 26.0371V26.0371C45.7019 26.2426 45.8581 26.4385 46.069 26.4385L46.2593 26.4385" stroke="#FB8500" stroke-width="0.106195" stroke-linecap="round"/>
<path d="M44.7572 24.2025V24.2025C44.9925 24.4429 45.4013 24.3055 45.4437 23.9718L45.4713 23.7539" stroke="#FB8500" stroke-width="0.106195" stroke-linecap="round"/>
<path d="M45.6558 24.8398L45.6254 24.916C45.5206 25.1784 45.8282 25.412 46.0529 25.2406V25.2406" stroke="#FB8500" stroke-width="0.106195" stroke-linecap="round"/>
<path d="M44.8806 26.0664L44.7956 26.1687C44.6475 26.3467 44.8519 26.5991 45.0568 26.4912V26.4912" stroke="#FB8500" stroke-width="0.106195" stroke-linecap="round"/>
<path d="M44.3264 25.0117V25.0117C44.3241 25.3105 44.6694 25.4782 44.9028 25.2917L44.9766 25.2327" stroke="#FB8500" stroke-width="0.106195" stroke-linecap="round"/>
<path d="M45.4317 14.2701C45.658 14.3023 45.7778 14.5552 45.6593 14.7507L45.5585 14.9169L45.7353 15.0164C45.9366 15.1297 45.9542 15.4128 45.7685 15.5502L45.6296 15.6529L45.7547 15.8001C45.9081 15.9806 45.8178 16.2594 45.5878 16.3158L45.4429 16.3513L45.5028 16.5107C45.5883 16.7381 45.3978 16.9737 45.1575 16.9378L45.0236 16.9178L45.0237 16.9258C45.0273 17.2334 44.6955 17.4285 44.4284 17.2759V17.2759L44.3822 17.4024C44.2982 17.6327 43.9964 17.6857 43.8389 17.4979L43.7376 17.3772L43.6439 17.4817C43.4837 17.6606 43.1907 17.6047 43.1077 17.3794L43.0445 17.208V17.208C42.7664 17.341 42.4446 17.1392 42.443 16.831L42.4428 16.7912L42.2584 16.8007C42.0295 16.8125 41.8634 16.586 41.9435 16.3712L42.0137 16.1831L41.9766 16.1704C41.6874 16.0716 41.5941 15.7089 41.7996 15.4828L41.8151 15.4658L41.6608 15.3381C41.4808 15.1892 41.5171 14.9035 41.7287 14.8043L41.8739 14.7361L41.7813 14.5787C41.6596 14.3717 41.8019 14.1095 42.0419 14.0989L42.1821 14.0927L42.1779 14.0702C42.1212 13.7705 42.4102 13.5218 42.6982 13.6225V13.6225L42.7212 13.4858C42.7621 13.243 43.0513 13.1364 43.24 13.2947L43.3523 13.3888L43.4216 13.2726C43.5461 13.0639 43.8491 13.0658 43.9709 13.2761L44.0562 13.4233L44.1755 13.3338C44.3649 13.1915 44.6378 13.2984 44.6802 13.5314L44.7148 13.7214L44.8823 13.679C45.1063 13.6224 45.3142 13.8154 45.2743 14.0429L45.2392 14.2427L45.4317 14.2701Z" fill="white"/>
<path d="M45.3477 15.5176V15.5176C45.0281 15.4778 44.7911 15.8071 44.9302 16.0975L44.9728 16.1865" stroke="#FB8500" stroke-width="0.106195" stroke-linecap="round"/>
<path d="M44.2611 16.4316V16.4316C43.9416 16.3919 43.7045 16.7212 43.8437 17.0116L43.8863 17.1005" stroke="#FB8500" stroke-width="0.106195" stroke-linecap="round"/>
<path d="M42.9496 15.7866V15.7866C42.7438 15.8321 42.6335 16.0571 42.7238 16.2476L42.8052 16.4196" stroke="#FB8500" stroke-width="0.106195" stroke-linecap="round"/>
<path d="M44.1833 14.1073V14.1073C44.0667 14.4228 44.3659 14.7335 44.6856 14.629L44.8944 14.5607" stroke="#FB8500" stroke-width="0.106195" stroke-linecap="round"/>
<path d="M43.9933 15.1914L43.9115 15.1965C43.6294 15.2142 43.55 15.5922 43.8011 15.7219V15.7219" stroke="#FB8500" stroke-width="0.106195" stroke-linecap="round"/>
<path d="M42.5508 15.0156L42.4219 14.9825C42.1977 14.9249 42.0571 15.2177 42.2423 15.3567V15.3567" stroke="#FB8500" stroke-width="0.106195" stroke-linecap="round"/>
<path d="M43.2679 14.0645V14.0645C42.997 14.1903 42.9932 14.5741 43.2616 14.7052L43.3466 14.7467" stroke="#FB8500" stroke-width="0.106195" stroke-linecap="round"/>
<path d="M15.8615 28.9593C15.9874 28.7686 16.2672 28.7686 16.3932 28.9593L16.5003 29.1216L16.6659 29.0044C16.8544 28.8709 17.1179 28.9762 17.1625 29.2028L17.1959 29.3723L17.3824 29.3223C17.6112 29.2609 17.8246 29.4618 17.7771 29.6939L17.7472 29.84L17.9168 29.8541C18.159 29.8742 18.2904 30.1471 18.1551 30.349L18.0797 30.4614L18.087 30.4647C18.3665 30.5931 18.4008 30.9766 18.1485 31.1526V31.1526L18.2431 31.2485C18.4153 31.423 18.334 31.7185 18.0968 31.7804L17.9444 31.8203L17.9988 31.9497C18.0919 32.1711 17.9159 32.4119 17.6768 32.3905L17.4948 32.3742V32.3742C17.496 32.6825 17.1759 32.8871 16.8966 32.7565L16.8606 32.7397L16.7903 32.9104C16.7029 33.1223 16.4272 33.1754 16.2673 33.0112L16.1273 32.8672L16.1 32.8953C15.8869 33.1143 15.5192 33.0435 15.4028 32.7609L15.394 32.7397L15.2127 32.8244C15.001 32.9234 14.7583 32.7683 14.7592 32.5346L14.7598 32.3742L14.5779 32.3905C14.3387 32.4119 14.1627 32.1711 14.2558 31.9497L14.3102 31.8203L14.2881 31.8145C13.9929 31.7374 13.8919 31.3698 14.1061 31.1526V31.1526L13.9925 31.0733C13.7905 30.9324 13.818 30.6254 14.0418 30.5226L14.1749 30.4614L14.0996 30.349C13.9642 30.1471 14.0956 29.8742 14.3378 29.8541L14.5074 29.84L14.4775 29.6939C14.43 29.4618 14.6434 29.2609 14.8722 29.3223L15.0587 29.3723L15.0921 29.2028C15.1368 28.9762 15.4002 28.8709 15.5888 29.0044L15.7543 29.1216L15.8615 28.9593Z" fill="white"/>
<path d="M16.9517 29.5703V29.5703C16.7789 29.842 16.9751 30.1973 17.2971 30.1958L17.3958 30.1954" stroke="#FB8500" stroke-width="0.106195" stroke-linecap="round"/>
<path d="M17.3132 30.9434V30.9434C17.1405 31.2151 17.3367 31.5703 17.6587 31.5688L17.7573 31.5684" stroke="#FB8500" stroke-width="0.106195" stroke-linecap="round"/>
<path d="M16.1704 31.8515V31.8515C16.1233 32.057 16.2795 32.253 16.4904 32.253L16.6806 32.253" stroke="#FB8500" stroke-width="0.106195" stroke-linecap="round"/>
<path d="M15.1786 30.017V30.017C15.4139 30.2573 15.8227 30.1199 15.8651 29.7863L15.8927 29.5684" stroke="#FB8500" stroke-width="0.106195" stroke-linecap="round"/>
<path d="M16.077 30.6543L16.0466 30.7304C15.9419 30.9929 16.2495 31.2265 16.4742 31.0551V31.0551" stroke="#FB8500" stroke-width="0.106195" stroke-linecap="round"/>
<path d="M15.302 31.8809L15.2169 31.9831C15.0689 32.1612 15.2733 32.4135 15.4782 32.3057V32.3057" stroke="#FB8500" stroke-width="0.106195" stroke-linecap="round"/>
<path d="M14.7477 30.8262V30.8262C14.7454 31.1249 15.0907 31.2926 15.3241 31.1061L15.3979 31.0471" stroke="#FB8500" stroke-width="0.106195" stroke-linecap="round"/>
<path d="M68.5725 23.2718C68.6984 23.0811 68.9783 23.0811 69.1042 23.2718L69.2114 23.4341L69.3769 23.3169C69.5655 23.1834 69.8289 23.2887 69.8736 23.5153L69.907 23.6848L70.0935 23.6348C70.3223 23.5734 70.5357 23.7743 70.4882 24.0064L70.4583 24.1525L70.6279 24.1666C70.8701 24.1867 71.0015 24.4596 70.8661 24.6615L70.7908 24.7739L70.798 24.7772C71.0775 24.9056 71.1119 25.2891 70.8596 25.4651V25.4651L70.9542 25.561C71.1263 25.7355 71.0451 26.031 70.8079 26.0929L70.6554 26.1328L70.7099 26.2622C70.803 26.4836 70.627 26.7244 70.3878 26.703L70.2059 26.6867V26.6867C70.207 26.995 69.887 27.1996 69.6077 27.069L69.5716 27.0522L69.5013 27.2229C69.414 27.4348 69.1382 27.4879 68.9784 27.3237L68.8384 27.1797L68.8111 27.2078C68.598 27.4268 68.2303 27.356 68.1139 27.0734L68.1051 27.0522L67.9237 27.1369C67.712 27.2359 67.4694 27.0808 67.4703 26.8471L67.4709 26.6867L67.2889 26.703C67.0497 26.7244 66.8738 26.4836 66.9669 26.2622L67.0213 26.1328L66.9991 26.127C66.704 26.0499 66.6029 25.6823 66.8172 25.4651V25.4651L66.7035 25.3858C66.5015 25.2449 66.529 24.9379 66.7528 24.8351L66.886 24.7739L66.8106 24.6615C66.6753 24.4596 66.8067 24.1867 67.0489 24.1666L67.2185 24.1525L67.1886 24.0064C67.1411 23.7743 67.3544 23.5734 67.5832 23.6348L67.7698 23.6848L67.8032 23.5153C67.8478 23.2887 68.1113 23.1834 68.2998 23.3169L68.4654 23.4341L68.5725 23.2718Z" fill="white"/>
<path d="M69.6628 23.8828V23.8828C69.4901 24.1545 69.6863 24.5098 70.0083 24.5083L70.1069 24.5079" stroke="#FB8500" stroke-width="0.106195" stroke-linecap="round"/>
<path d="M70.0243 25.2559V25.2559C69.8516 25.5276 70.0477 25.8828 70.3697 25.8813L70.4684 25.8809" stroke="#FB8500" stroke-width="0.106195" stroke-linecap="round"/>
<path d="M68.7881 24.9668L68.7577 25.0429C68.6529 25.3054 68.9606 25.539 69.1853 25.3676V25.3676" stroke="#FB8500" stroke-width="0.106195" stroke-linecap="round"/>
<path d="M68.8813 26.164V26.164C68.8343 26.3695 68.9904 26.5655 69.2013 26.5655L69.3916 26.5655" stroke="#FB8500" stroke-width="0.106195" stroke-linecap="round"/>
<path d="M67.8895 24.3295V24.3295C68.1248 24.5698 68.5336 24.4324 68.576 24.0988L68.6036 23.8809" stroke="#FB8500" stroke-width="0.106195" stroke-linecap="round"/>
<path d="M68.0131 26.1934L67.928 26.2956C67.78 26.4737 67.9843 26.726 68.1892 26.6182V26.6182" stroke="#FB8500" stroke-width="0.106195" stroke-linecap="round"/>
<path d="M67.4587 25.1387V25.1387C67.4565 25.4374 67.8018 25.6051 68.0351 25.4186L68.109 25.3596" stroke="#FB8500" stroke-width="0.106195" stroke-linecap="round"/>
<path d="M58.8391 15.6859C58.965 15.4951 59.2449 15.4951 59.3708 15.6859L59.478 15.8481L59.6435 15.7309C59.8321 15.5975 60.0955 15.7028 60.1402 15.9294L60.1736 16.0989L60.3601 16.0489C60.5889 15.9875 60.8023 16.1884 60.7548 16.4205L60.7249 16.5666L60.8945 16.5806C61.1367 16.6007 61.2681 16.8737 61.1327 17.0756L61.0574 17.188L61.0646 17.1913C61.3441 17.3197 61.3785 17.7032 61.1262 17.8792V17.8792L61.2208 17.975C61.3929 18.1496 61.3117 18.445 61.0745 18.507L60.922 18.5468L60.9765 18.6763C61.0696 18.8976 60.8936 19.1385 60.6544 19.1171L60.4725 19.1008V19.1008C60.4736 19.4091 60.1536 19.6136 59.8743 19.4831L59.8383 19.4662L59.7679 19.6369C59.6806 19.8489 59.4048 19.902 59.245 19.7377L59.105 19.5938L59.0777 19.6219C58.8646 19.8409 58.4969 19.77 58.3805 19.4875L58.3717 19.4662L58.1903 19.551C57.9786 19.65 57.736 19.4949 57.7369 19.2612L57.7375 19.1008L57.5555 19.1171C57.3163 19.1385 57.1404 18.8976 57.2335 18.6763L57.2879 18.5468L57.2657 18.5411C56.9706 18.4639 56.8695 18.0963 57.0838 17.8792V17.8792L56.9701 17.7999C56.7681 17.659 56.7956 17.3519 57.0194 17.2491L57.1526 17.188L57.0772 17.0756C56.9419 16.8737 57.0733 16.6007 57.3155 16.5806L57.4851 16.5666L57.4552 16.4205C57.4077 16.1884 57.621 15.9875 57.8498 16.0489L58.0364 16.0989L58.0698 15.9294C58.1144 15.7028 58.3779 15.5975 58.5664 15.7309L58.732 15.8481L58.8391 15.6859Z" fill="white"/>
<path d="M59.9293 16.2969V16.2969C59.7566 16.5686 59.9528 16.9238 60.2747 16.9224L60.3734 16.9219" stroke="#FB8500" stroke-width="0.106195" stroke-linecap="round"/>
<path d="M60.2908 17.6699V17.6699C60.1181 17.9417 60.3142 18.2969 60.6362 18.2954L60.7349 18.295" stroke="#FB8500" stroke-width="0.106195" stroke-linecap="round"/>
<path d="M59.1479 18.5781V18.5781C59.1009 18.7836 59.257 18.9795 59.4679 18.9795L59.6582 18.9795" stroke="#FB8500" stroke-width="0.106195" stroke-linecap="round"/>
<path d="M57.7253 17.5527V17.5527C57.7231 17.8515 58.0684 18.0192 58.3018 17.8327L58.3756 17.7737" stroke="#FB8500" stroke-width="0.106195" stroke-linecap="round"/>
<path d="M58.1561 16.7435V16.7435C58.3914 16.9839 58.8002 16.8465 58.8426 16.5128L58.8702 16.2949" stroke="#FB8500" stroke-width="0.106195" stroke-linecap="round"/>
<path d="M59.0547 17.3809L59.0243 17.457C58.9195 17.7194 59.2272 17.953 59.4519 17.7816V17.7816" stroke="#FB8500" stroke-width="0.106195" stroke-linecap="round"/>
<path d="M58.2795 18.6074L58.1945 18.7097C58.0464 18.8877 58.2508 19.1401 58.4557 19.0322V19.0322" stroke="#FB8500" stroke-width="0.106195" stroke-linecap="round"/>
<path d="M10.6788 35.5335C10.8048 35.3428 11.0846 35.3428 11.2106 35.5335L11.3177 35.6958L11.4833 35.5786C11.6718 35.4452 11.9352 35.5504 11.9799 35.777L12.0133 35.9466L12.1998 35.8965C12.4286 35.8351 12.642 36.0361 12.5945 36.2681L12.5646 36.4142L12.7342 36.4283C12.9764 36.4484 13.1078 36.7214 12.9725 36.9232L12.8971 37.0356L12.9043 37.0389C13.1839 37.1673 13.2182 37.5508 12.9659 37.7268V37.7268L13.0605 37.8227C13.2327 37.9972 13.1514 38.2927 12.9142 38.3547L12.7618 38.3945L12.8162 38.5239C12.9093 38.7453 12.7333 38.9861 12.4941 38.9647L12.3122 38.9485V38.9485C12.3134 39.2567 11.9933 39.4613 11.714 39.3307L11.678 39.3139L11.6076 39.4846C11.5203 39.6965 11.2445 39.7497 11.0847 39.5854L10.9447 39.4415L10.9174 39.4695C10.7043 39.6886 10.3366 39.6177 10.2202 39.3351L10.2114 39.3139L10.0301 39.3987C9.81836 39.4976 9.57571 39.3425 9.57658 39.1089L9.57718 38.9485L9.39526 38.9647C9.15607 38.9861 8.98009 38.7453 9.0732 38.5239L9.12763 38.3945L9.10546 38.3887C8.81033 38.3116 8.70926 37.944 8.92348 37.7268V37.7268L8.80986 37.6476C8.60786 37.5066 8.63535 37.1996 8.85917 37.0968L8.99231 37.0356L8.91694 36.9232C8.78159 36.7214 8.913 36.4484 9.1552 36.4283L9.32482 36.4142L9.29491 36.2681C9.24739 36.0361 9.46077 35.8351 9.68956 35.8965L9.87611 35.9466L9.9095 35.777C9.95415 35.5504 10.2176 35.4452 10.4061 35.5786L10.5717 35.6958L10.6788 35.5335Z" fill="white"/>
<path d="M11.769 36.1445V36.1445C11.5963 36.4163 11.7925 36.7715 12.1145 36.77L12.2131 36.7696" stroke="#FB8500" stroke-width="0.106195" stroke-linecap="round"/>
<path d="M12.1305 37.5176V37.5176C11.9578 37.7893 12.1539 38.1445 12.4759 38.1431L12.5746 38.1426" stroke="#FB8500" stroke-width="0.106195" stroke-linecap="round"/>
<path d="M10.9876 38.4257V38.4257C10.9406 38.6313 11.0968 38.8272 11.3076 38.8272L11.4979 38.8272" stroke="#FB8500" stroke-width="0.106195" stroke-linecap="round"/>
<path d="M9.99584 36.5912V36.5912C10.2311 36.8316 10.64 36.6942 10.6823 36.3605L10.71 36.1426" stroke="#FB8500" stroke-width="0.106195" stroke-linecap="round"/>
<path d="M10.8943 37.2285L10.8639 37.3046C10.7591 37.5671 11.0668 37.8007 11.2915 37.6293V37.6293" stroke="#FB8500" stroke-width="0.106195" stroke-linecap="round"/>
<path d="M10.1193 38.4551L10.0342 38.5574C9.88615 38.7354 10.0905 38.9877 10.2954 38.8799V38.8799" stroke="#FB8500" stroke-width="0.106195" stroke-linecap="round"/>
<path d="M9.56494 37.4004V37.4004C9.56265 37.6991 9.90797 37.8668 10.1413 37.6803L10.2152 37.6214" stroke="#FB8500" stroke-width="0.106195" stroke-linecap="round"/>
<path d="M17.4374 10.6055L17.635 10.893L17.6567 10.87C17.7509 10.7698 17.9142 10.7843 17.9893 10.8996L18.0253 10.9549L18.1795 10.8365C18.2386 10.7912 18.3248 10.8192 18.3459 10.8906L18.4011 11.077L18.7077 10.9104L18.7532 11.2564L18.7992 11.2434C18.9283 11.2071 19.0583 11.298 19.0686 11.4317L19.0729 11.4887L19.416 11.425L19.3523 11.7681L19.5466 11.763C19.6211 11.761 19.6744 11.8344 19.6495 11.9046L19.5846 12.0878L19.9305 12.1333L19.764 12.4399L19.8225 12.4656C19.947 12.5203 19.9887 12.6763 19.9081 12.7859L19.8861 12.8157L20.0616 12.8994C20.1288 12.9314 20.143 13.021 20.0889 13.0723L19.948 13.206L20.1081 13.3161C20.1695 13.3583 20.1695 13.4489 20.1081 13.4911L19.948 13.6012L19.9903 13.6539C20.0791 13.7643 20.037 13.9289 19.9062 13.9832L19.8861 13.9915L20.0045 14.1457C20.0498 14.2048 20.0218 14.291 19.9504 14.3122L19.764 14.3673L19.9305 14.6739L19.5846 14.7194L19.5991 14.7826C19.6324 14.9272 19.5108 15.0605 19.3638 15.0407L19.3523 15.0391L19.416 15.3822L19.0729 15.3186L19.0691 15.3788C19.0595 15.5311 18.8972 15.6238 18.7611 15.5548L18.7532 15.5508L18.7279 15.7435C18.7182 15.8174 18.6374 15.8586 18.5719 15.823L18.4011 15.7302L18.3827 15.7815C18.3298 15.9284 18.1418 15.97 18.0319 15.8591L18.0253 15.8523L17.8751 16.1673L17.635 15.9142L17.5249 16.0744C17.4827 16.1358 17.3921 16.1358 17.3499 16.0744L17.2398 15.9142L16.9997 16.1673L16.8495 15.8523V15.8523C16.7459 15.9666 16.5586 15.9343 16.4994 15.7919L16.4737 15.7302L16.1671 15.8968L16.1216 15.5508L15.9384 15.6157C15.8681 15.6406 15.7948 15.5873 15.7968 15.5128L15.8019 15.3186L15.757 15.3237C15.6283 15.3386 15.5164 15.2357 15.5204 15.1063L15.5224 15.0391L15.1737 15.0483L15.2902 14.7194L15.0975 14.6941C15.0236 14.6844 14.9824 14.6036 15.018 14.5381L15.1108 14.3673V14.3673C14.9836 14.3824 14.886 14.2567 14.9322 14.1372L14.9887 13.9915L14.8132 13.9079C14.746 13.8758 14.7318 13.7862 14.7858 13.735L14.9268 13.6012L14.8952 13.575C14.8033 13.4992 14.7917 13.3628 14.8695 13.2726L14.9268 13.206L14.7858 13.0723C14.7318 13.021 14.746 12.9314 14.8132 12.8994L14.9887 12.8157L14.963 12.7763C14.8928 12.6684 14.934 12.5233 15.0504 12.4684L15.1108 12.4399L15.018 12.2691C14.9824 12.2036 15.0236 12.1228 15.0975 12.1131L15.2902 12.0878L15.2253 11.9046C15.2004 11.8344 15.2537 11.761 15.3282 11.763L15.5224 11.7681L15.5204 11.7015C15.5164 11.5729 15.6269 11.4703 15.7548 11.4837L15.8019 11.4887L15.7927 11.1399L16.1216 11.2564L16.1671 10.9104L16.4737 11.077L16.5082 11.009C16.5694 10.8888 16.7256 10.8552 16.8307 10.9397L16.8495 10.9549L16.9997 10.6399L17.2398 10.893L17.4374 10.6055Z" fill="white"/>
<path d="M17.9325 14.3357L17.8224 14.5941C17.8078 14.6285 17.7843 14.6584 17.7544 14.6808L17.6353 14.7701C17.6074 14.791 17.5851 14.8186 17.5703 14.8502L17.4719 15.0611M17.9325 14.3357L17.6263 14.2889C17.6041 14.2856 17.5815 14.2857 17.5594 14.2894L17.3405 14.3259C17.3022 14.3323 17.2628 14.328 17.2267 14.3136L17.0814 14.2555C17.0432 14.2402 17.0013 14.2363 16.9609 14.2444L16.7994 14.2767C16.7758 14.2814 16.7515 14.2821 16.7277 14.2787L16.4506 14.2391C16.418 14.2344 16.3847 14.2374 16.3534 14.2479L16.0901 14.3357M17.9325 14.3357L17.8326 14.0621C17.8119 14.0053 17.768 13.9601 17.712 13.9377L17.6074 13.8959C17.5643 13.8786 17.528 13.8477 17.5042 13.8079L17.4101 13.6512C17.3939 13.6242 17.3719 13.6012 17.3458 13.5837L17.1422 13.448C17.0987 13.419 17.0674 13.3749 17.0543 13.3243L17.0399 13.2682C17.0288 13.2252 17.0044 13.1867 16.9703 13.1582L16.6428 12.8848M17.9325 14.3357L18.0473 14.0069C18.0551 13.9844 18.0591 13.9608 18.0591 13.9369V13.6444C18.0591 13.6217 18.0628 13.5993 18.0699 13.5778L18.2088 13.1568M17.9325 14.3357L18.1184 14.2938C18.1476 14.2872 18.1752 14.2745 18.1992 14.2565L18.5773 13.9729" stroke="#FB8500" stroke-width="0.106195" stroke-linecap="round"/>
<path d="M16.1938 13.0939L15.9347 12.9385M16.0901 13.3012L15.6238 13.0939M18.1628 12.5757L18.4219 12.1094M18.3183 12.6794L18.4219 12.4721M19.0437 14.5448L19.1992 14.1303" stroke="#FB8500" stroke-width="0.106195" stroke-linecap="round"/>
<path d="M29.6986 32.4766L29.8962 32.7641L29.9179 32.7411C30.0122 32.6409 30.1754 32.6554 30.2505 32.7707L30.2865 32.826L30.4407 32.7076C30.4998 32.6623 30.586 32.6903 30.6072 32.7617L30.6623 32.9481L30.969 32.7815L31.0144 33.1275L31.0605 33.1145C31.1895 33.0782 31.3196 33.1691 31.3298 33.3028L31.3341 33.3598L31.6772 33.2961L31.6136 33.6392L31.8079 33.6341C31.8823 33.6321 31.9356 33.7055 31.9107 33.7757L31.8458 33.9589L32.1918 34.0044L32.0252 34.311L32.0837 34.3367C32.2082 34.3914 32.2499 34.5474 32.1693 34.657L32.1474 34.6868L32.3228 34.7705C32.39 34.8025 32.4042 34.8921 32.3502 34.9434L32.2092 35.0771L32.3694 35.1872C32.4308 35.2294 32.4308 35.32 32.3694 35.3622L32.2092 35.4723L32.2516 35.525C32.3403 35.6354 32.2982 35.8 32.1674 35.8543L32.1474 35.8626L32.2657 36.0168C32.3111 36.0759 32.283 36.1621 32.2116 36.1832L32.0252 36.2384L32.1918 36.545L31.8458 36.5905L31.8604 36.6537C31.8936 36.7983 31.7721 36.9316 31.625 36.9118L31.6136 36.9102L31.6772 37.2533L31.3341 37.1896L31.3303 37.2499C31.3207 37.4022 31.1584 37.4949 31.0223 37.4259L31.0144 37.4219L30.9891 37.6146C30.9794 37.6885 30.8986 37.7296 30.8331 37.6941L30.6623 37.6013L30.6439 37.6526C30.591 37.7995 30.4031 37.8411 30.2932 37.7302L30.2865 37.7234L30.1363 38.0384L29.8962 37.7853L29.7861 37.9454C29.744 38.0069 29.6533 38.0069 29.6111 37.9454L29.501 37.7853L29.2609 38.0384L29.1107 37.7234V37.7234C29.0072 37.8377 28.8199 37.8054 28.7606 37.663L28.7349 37.6013L28.4283 37.7679L28.3828 37.4219L28.1996 37.4868C28.1294 37.5117 28.056 37.4584 28.058 37.3839L28.0631 37.1896L28.0182 37.1948C27.8896 37.2097 27.7777 37.1068 27.7816 36.9773L27.7837 36.9102L27.4349 36.9194L27.5514 36.5905L27.3587 36.5652C27.2848 36.5555 27.2437 36.4747 27.2792 36.4092L27.372 36.2384V36.2384C27.2448 36.2535 27.1472 36.1278 27.1935 36.0083L27.2499 35.8626L27.0745 35.7789C27.0072 35.7469 26.993 35.6573 27.0471 35.606L27.1881 35.4723L27.1564 35.4461C27.0645 35.3703 27.0529 35.2338 27.1307 35.1437L27.1881 35.0771L27.0471 34.9434C26.993 34.8921 27.0072 34.8025 27.0745 34.7705L27.2499 34.6868L27.2242 34.6474C27.154 34.5394 27.1952 34.3944 27.3116 34.3395L27.372 34.311L27.2792 34.1402C27.2437 34.0747 27.2848 33.9939 27.3587 33.9842L27.5514 33.9589L27.4865 33.7757C27.4616 33.7055 27.5149 33.6321 27.5894 33.6341L27.7837 33.6392L27.7816 33.5726C27.7777 33.444 27.8881 33.3414 28.0161 33.3548L28.0631 33.3598L28.0539 33.011L28.3828 33.1275L28.4283 32.7815L28.7349 32.9481L28.7695 32.8801C28.8306 32.7598 28.9868 32.7263 29.0919 32.8108L29.1107 32.826L29.2609 32.511L29.501 32.7641L29.6986 32.4766Z" fill="white"/>
<path d="M30.1937 36.2067L30.0836 36.4652C30.069 36.4996 30.0456 36.5295 30.0157 36.5519L29.8966 36.6412C29.8686 36.6621 29.8463 36.6897 29.8315 36.7213L29.7331 36.9322M30.1937 36.2067L29.8875 36.16C29.8653 36.1567 29.8427 36.1568 29.8206 36.1605L29.6017 36.197C29.5634 36.2034 29.524 36.1991 29.4879 36.1847L29.3427 36.1266C29.3044 36.1113 29.2625 36.1074 29.2221 36.1155L29.0606 36.1478C29.037 36.1525 29.0128 36.1532 28.9889 36.1498L28.7119 36.1102C28.6792 36.1055 28.6459 36.1085 28.6147 36.119L28.3513 36.2067M30.1937 36.2067L30.0938 35.9331C30.0731 35.8764 30.0293 35.8312 29.9732 35.8088L29.8686 35.767C29.8255 35.7497 29.7893 35.7188 29.7654 35.679L29.6713 35.5223C29.6551 35.4953 29.6332 35.4723 29.607 35.4548L29.4034 35.3191C29.3599 35.2901 29.3286 35.246 29.3156 35.1954L29.3011 35.1393C29.29 35.0963 29.2657 35.0578 29.2316 35.0293L28.904 34.7559M30.1937 36.2067L30.3085 35.878C30.3164 35.8555 30.3204 35.8318 30.3204 35.808V35.5155C30.3204 35.4928 30.324 35.4704 30.3311 35.4489L30.4701 35.0279M30.1937 36.2067L30.3796 36.1649C30.4089 36.1583 30.4364 36.1456 30.4604 36.1276L30.8386 35.844" stroke="#FB8500" stroke-width="0.106195" stroke-linecap="round"/>
<path d="M28.455 34.965L28.1959 34.8095M28.3514 35.1723L27.885 34.965M30.4241 34.4468L30.6831 33.9805M30.5795 34.5505L30.6831 34.3432M31.305 36.4159L31.4604 36.0013" stroke="#FB8500" stroke-width="0.106195" stroke-linecap="round"/>
<path d="M68.2437 31.0115L68.1779 31.3541L68.2095 31.3534C68.347 31.3501 68.4514 31.4764 68.4221 31.6109L68.4081 31.6753L68.6006 31.7019C68.6744 31.7121 68.7151 31.7931 68.6791 31.8583L68.5853 32.0285L68.9192 32.1297L68.705 32.4051L68.7466 32.4288C68.8631 32.4951 68.8898 32.6515 68.8018 32.7527L68.7644 32.7958L69.0507 32.9952L68.7618 33.191L68.902 33.3256C68.9557 33.3773 68.941 33.4667 68.8735 33.4984L68.6976 33.5809L68.9082 33.859L68.5731 33.9559L68.5958 34.0156C68.6444 34.1426 68.5627 34.2819 68.4281 34.3016L68.3914 34.3069L68.4552 34.4905C68.4796 34.5609 68.4259 34.6339 68.3514 34.6315L68.1571 34.6251L68.1914 34.8164C68.2045 34.8898 68.14 34.9535 68.0668 34.9394L67.8759 34.9028L67.8682 34.97C67.852 35.1107 67.7053 35.1964 67.5748 35.1414L67.5548 35.133L67.5282 35.3255C67.518 35.3993 67.437 35.44 67.3717 35.404L67.2015 35.3102L67.1004 35.6441L66.8249 35.4299L66.7902 35.4846C66.7106 35.6099 66.5304 35.617 66.4412 35.4985L66.4343 35.4893L66.2349 35.7756L66.0391 35.4867L65.9936 35.5264C65.8785 35.6265 65.6984 35.5762 65.6519 35.4309L65.6492 35.4225L65.4943 35.5398C65.4349 35.5848 65.3488 35.5562 65.3281 35.4847L65.2741 35.298L65.2247 35.3209C65.083 35.3865 64.9214 35.2819 64.9231 35.1258L64.9232 35.1163L64.5936 35.2308L64.605 34.882L64.4137 34.9163C64.3403 34.9294 64.2766 34.8649 64.2907 34.7917L64.3273 34.6008L63.9785 34.6078L64.0971 34.2797V34.2797C63.943 34.2863 63.8344 34.1303 63.894 33.9881L63.9199 33.9264L63.586 33.8253L63.8002 33.5498L63.6253 33.4651C63.5582 33.4326 63.5446 33.343 63.599 33.292L63.7408 33.1592L63.7056 33.1309C63.6047 33.0497 63.5992 32.8979 63.6941 32.8097L63.7433 32.764L63.4917 32.5223L63.8076 32.3741L63.6903 32.2192C63.6453 32.1598 63.6738 32.0737 63.7454 32.053L63.9321 31.999V31.999C63.832 31.9191 63.8529 31.7614 63.9704 31.7103L64.1138 31.6481L64.05 31.4645C64.0256 31.3941 64.0793 31.3211 64.1538 31.3235L64.3481 31.3299L64.3444 31.289C64.3338 31.1703 64.4228 31.0662 64.5416 31.0581L64.6292 31.0522L64.6254 30.8579C64.6239 30.7834 64.6976 30.7306 64.7676 30.7559L64.9504 30.822L64.9605 30.776C64.9879 30.6502 65.1201 30.5776 65.2409 30.6219L65.3036 30.6448L65.36 30.4588C65.3816 30.3875 65.468 30.36 65.5268 30.4058L65.6802 30.5251L65.765 30.3502C65.7975 30.2831 65.8871 30.2695 65.9381 30.3239L66.0709 30.4657L66.1169 30.4175C66.2056 30.3243 66.3562 30.3308 66.4366 30.4313L66.4661 30.4682L66.7078 30.2166L66.856 30.5325L67.1341 30.3218L67.231 30.657L67.3037 30.6338C67.4322 30.5929 67.5659 30.6805 67.5795 30.8146L67.582 30.8387L67.9116 30.7242L67.9002 31.0729L68.2437 31.0115Z" fill="white"/>
<path d="M65.9368 33.9847L65.6755 34.088C65.6408 34.1017 65.603 34.106 65.5661 34.1005L65.4188 34.0785C65.3843 34.0734 65.349 34.0768 65.3161 34.0885L65.0969 34.1667M65.9368 33.9847L65.7549 33.734C65.7417 33.7158 65.7257 33.6999 65.7075 33.6867L65.5278 33.5566C65.4963 33.5338 65.4717 33.5028 65.4566 33.467L65.3958 33.3228C65.3799 33.2848 65.3532 33.2523 65.319 33.2292L65.1826 33.137C65.1626 33.1235 65.1451 33.1067 65.1308 33.0874L64.9643 32.8624C64.9447 32.8359 64.9192 32.8143 64.8898 32.7994L64.6423 32.6737M65.9368 33.9847L66.0613 33.7214C66.0871 33.6668 66.0884 33.6038 66.065 33.5482L66.0213 33.4444C66.0033 33.4016 65.9998 33.3541 66.0113 33.3091L66.0568 33.1321C66.0646 33.1016 66.0656 33.0698 66.0596 33.0389L66.0131 32.7987C66.0032 32.7473 66.0126 32.6941 66.0394 32.6493L66.0692 32.5995C66.092 32.5614 66.1023 32.5171 66.0986 32.4728L66.063 32.0476M65.9368 33.9847L66.2513 33.8354C66.2729 33.8252 66.2925 33.8114 66.3095 33.7947L66.5177 33.5891C66.5338 33.5732 66.5523 33.56 66.5726 33.55L66.9698 33.3531M65.9368 33.9847L66.0971 34.0876C66.1224 34.1038 66.1508 34.1145 66.1805 34.1189L66.6479 34.1887" stroke="#FB8500" stroke-width="0.106195" stroke-linecap="round"/>
<path d="M65.6001 31.8747L65.5286 31.5811M65.3798 31.9466L65.1996 31.4691M67.3523 32.9117L67.8661 32.7684M67.3877 33.0952L67.608 33.0233M66.5701 34.922L66.9743 34.7414" stroke="#FB8500" stroke-width="0.106195" stroke-linecap="round"/>
<path d="M68.2437 31.0115L68.1779 31.3541L68.2095 31.3534C68.347 31.3501 68.4514 31.4764 68.4221 31.6109L68.4081 31.6753L68.6006 31.7019C68.6744 31.7121 68.7151 31.7931 68.6791 31.8583L68.5853 32.0285L68.9192 32.1297L68.705 32.4051L68.7466 32.4288C68.8631 32.4951 68.8898 32.6515 68.8018 32.7527L68.7644 32.7958L69.0507 32.9952L68.7618 33.191L68.902 33.3256C68.9557 33.3773 68.941 33.4667 68.8735 33.4984L68.6976 33.5809L68.9082 33.859L68.5731 33.9559L68.5958 34.0156C68.6444 34.1426 68.5627 34.2819 68.4281 34.3016L68.3914 34.3069L68.4552 34.4905C68.4796 34.5609 68.4259 34.6339 68.3514 34.6315L68.1571 34.6251L68.1914 34.8164C68.2045 34.8898 68.14 34.9535 68.0668 34.9394L67.8759 34.9028L67.8682 34.97C67.852 35.1107 67.7053 35.1964 67.5748 35.1414L67.5548 35.133L67.5282 35.3255C67.518 35.3993 67.437 35.44 67.3717 35.404L67.2015 35.3102L67.1004 35.6441L66.8249 35.4299L66.7902 35.4846C66.7106 35.6099 66.5304 35.617 66.4412 35.4985L66.4343 35.4893L66.2349 35.7756L66.0391 35.4867L65.9936 35.5264C65.8785 35.6265 65.6984 35.5762 65.6519 35.4309L65.6492 35.4225L65.4943 35.5398C65.4349 35.5848 65.3488 35.5562 65.3281 35.4847L65.2741 35.298L65.2247 35.3209C65.083 35.3865 64.9214 35.2819 64.9231 35.1258L64.9232 35.1163L64.5936 35.2308L64.605 34.882L64.4137 34.9163C64.3403 34.9294 64.2766 34.8649 64.2907 34.7917L64.3273 34.6008L63.9785 34.6078L64.0971 34.2797V34.2797C63.943 34.2863 63.8344 34.1303 63.894 33.9881L63.9199 33.9264L63.586 33.8253L63.8002 33.5498L63.6253 33.4651C63.5582 33.4326 63.5446 33.343 63.599 33.292L63.7408 33.1592L63.7056 33.1309C63.6047 33.0497 63.5992 32.8979 63.6941 32.8097L63.7433 32.764L63.4917 32.5223L63.8076 32.3741L63.6903 32.2192C63.6453 32.1598 63.6738 32.0737 63.7454 32.053L63.9321 31.999V31.999C63.832 31.9191 63.8529 31.7614 63.9704 31.7103L64.1138 31.6481L64.05 31.4645C64.0256 31.3941 64.0793 31.3211 64.1538 31.3235L64.3481 31.3299L64.3444 31.289C64.3338 31.1703 64.4228 31.0662 64.5416 31.0581L64.6292 31.0522L64.6254 30.8579C64.6239 30.7834 64.6976 30.7306 64.7676 30.7559L64.9504 30.822L64.9605 30.776C64.9879 30.6502 65.1201 30.5776 65.2409 30.6219L65.3036 30.6448L65.36 30.4588C65.3816 30.3875 65.468 30.36 65.5268 30.4058L65.6802 30.5251L65.765 30.3502C65.7975 30.2831 65.8871 30.2695 65.9381 30.3239L66.0709 30.4657L66.1169 30.4175C66.2056 30.3243 66.3562 30.3308 66.4366 30.4313L66.4661 30.4682L66.7078 30.2166L66.856 30.5325L67.1341 30.3218L67.231 30.657L67.3037 30.6338C67.4322 30.5929 67.5659 30.6805 67.5795 30.8146L67.582 30.8387L67.9116 30.7242L67.9002 31.0729L68.2437 31.0115Z" fill="white"/>
<path d="M65.9368 33.9847L65.6755 34.088C65.6408 34.1017 65.603 34.106 65.5661 34.1005L65.4188 34.0785C65.3843 34.0734 65.349 34.0768 65.3161 34.0885L65.0969 34.1667M65.9368 33.9847L65.7549 33.734C65.7417 33.7158 65.7257 33.6999 65.7075 33.6867L65.5278 33.5566C65.4963 33.5338 65.4717 33.5028 65.4566 33.467L65.3958 33.3228C65.3799 33.2848 65.3532 33.2523 65.319 33.2292L65.1826 33.137C65.1626 33.1235 65.1451 33.1067 65.1308 33.0874L64.9643 32.8624C64.9447 32.8359 64.9192 32.8143 64.8898 32.7994L64.6423 32.6737M65.9368 33.9847L66.0613 33.7214C66.0871 33.6668 66.0884 33.6038 66.065 33.5482L66.0213 33.4444C66.0033 33.4016 65.9998 33.3541 66.0113 33.3091L66.0568 33.1321C66.0646 33.1016 66.0656 33.0698 66.0596 33.0389L66.0131 32.7987C66.0032 32.7473 66.0126 32.6941 66.0394 32.6493L66.0692 32.5995C66.092 32.5614 66.1023 32.5171 66.0986 32.4728L66.063 32.0476M65.9368 33.9847L66.2513 33.8354C66.2729 33.8252 66.2925 33.8114 66.3095 33.7947L66.5177 33.5891C66.5338 33.5732 66.5523 33.56 66.5726 33.55L66.9698 33.3531M65.9368 33.9847L66.0971 34.0876C66.1224 34.1038 66.1508 34.1145 66.1805 34.1189L66.6479 34.1887" stroke="#FB8500" stroke-width="0.106195" stroke-linecap="round"/>
<path d="M65.6001 31.8747L65.5286 31.5811M65.3798 31.9466L65.1996 31.4691M67.3523 32.9117L67.8661 32.7684M67.3877 33.0952L67.608 33.0233M66.5701 34.922L66.9743 34.7414" stroke="#FB8500" stroke-width="0.106195" stroke-linecap="round"/>
<path d="M46.392 7.33336L46.6904 7.51415L46.7007 7.48423C46.7454 7.3541 46.9001 7.30016 47.016 7.37432L47.0716 7.40987L47.1634 7.23857C47.1986 7.1729 47.2887 7.16295 47.3374 7.21936L47.4644 7.36649L47.6753 7.08854L47.8591 7.3851L47.8957 7.35436C47.9984 7.26813 48.1543 7.29745 48.2186 7.41509L48.246 7.46523L48.5325 7.26606L48.6157 7.60491L48.7907 7.52029C48.8578 7.48785 48.9365 7.53277 48.9427 7.60702L48.959 7.80069L49.293 7.69979L49.2674 8.04776L49.3312 8.04712C49.4672 8.04574 49.5694 8.17078 49.5411 8.30381L49.5333 8.34004L49.7276 8.34408C49.8021 8.34563 49.8519 8.42141 49.8238 8.49039L49.7503 8.67032L49.9416 8.70471C50.0149 8.71789 50.0522 8.80052 50.0136 8.86425L49.9129 9.03048L49.9733 9.0611C50.0995 9.12517 50.1289 9.29252 50.0321 9.3958L50.0172 9.41164L50.1885 9.50346C50.2542 9.53865 50.2641 9.62877 50.2077 9.67745L50.0606 9.80443L50.3385 10.0153L50.042 10.1992L50.0812 10.2508C50.171 10.3689 50.1151 10.5404 49.9729 10.5828L49.9618 10.5861L50.161 10.8726L49.8222 10.9558L49.8435 11.0122C49.8974 11.155 49.7877 11.3063 49.6352 11.2994L49.6264 11.299L49.6826 11.4851C49.7041 11.5564 49.6474 11.6272 49.5731 11.6217L49.3793 11.6075L49.3836 11.6618C49.3959 11.8174 49.2417 11.9327 49.0959 11.8768L49.087 11.8734L49.0798 12.2222L48.7567 12.0904L48.7224 12.2817C48.7092 12.355 48.6265 12.3923 48.5628 12.3537L48.3966 12.253L48.2819 12.5825L48.0154 12.3573V12.3573C47.9681 12.5041 47.7841 12.5517 47.6714 12.4463L47.6226 12.4007L47.4117 12.6786L47.2279 12.382L47.0877 12.5166C47.0339 12.5682 46.9451 12.5498 46.9162 12.4811L46.841 12.3019L46.8022 12.3251C46.691 12.3916 46.5467 12.3439 46.497 12.2243L46.4713 12.1622L46.1572 12.3141L46.128 11.9665L45.942 12.0227C45.8707 12.0442 45.7999 11.9875 45.8054 11.9132L45.8196 11.7194V11.7194C45.7099 11.7855 45.5692 11.7111 45.5622 11.5831L45.5537 11.4271L45.3594 11.4231C45.2849 11.4215 45.2351 11.3457 45.2632 11.2768L45.3367 11.0968L45.2971 11.086C45.1822 11.0547 45.1154 10.9351 45.1492 10.8209L45.1741 10.7367L44.9905 10.6728C44.9202 10.6483 44.8962 10.5608 44.9443 10.5039L45.0698 10.3555L45.0302 10.3301C44.9218 10.2606 44.8996 10.1115 44.9831 10.0135L45.0264 9.96272L44.8716 9.84524C44.8122 9.8002 44.8165 9.70964 44.8798 9.67038L45.045 9.56799L44.9105 9.42773C44.8589 9.37396 44.8773 9.28518 44.946 9.25632L45.1252 9.18103L45.0959 9.12118C45.0393 9.00558 45.0978 8.86665 45.2199 8.82622L45.2648 8.81136L45.1129 8.49725L45.4606 8.4681L45.3597 8.1341L45.7077 8.15969L45.7112 8.0835C45.7174 7.94877 45.846 7.85389 45.9766 7.88768L46 7.89373L46.0072 7.5449L46.3302 7.67677L46.392 7.33336Z" fill="white"/>
<path d="M48.3787 10.529L48.3847 10.8098C48.3855 10.8472 48.3764 10.8841 48.3584 10.9168L48.2866 11.0472C48.2698 11.0778 48.2607 11.1121 48.2603 11.147L48.2574 11.3797M48.3787 10.529L48.0804 10.6124C48.0588 10.6185 48.0382 10.6279 48.0196 10.6404L47.8351 10.7637C47.8028 10.7853 47.7652 10.7976 47.7263 10.7993L47.57 10.8061C47.5288 10.8079 47.4891 10.8217 47.4556 10.8456L47.3217 10.9415C47.3021 10.9556 47.2803 10.9662 47.2572 10.9729L46.9884 11.0508C46.9567 11.06 46.9276 11.0764 46.9034 11.0988L46.6995 11.2872M48.3787 10.529L48.175 10.3207C48.1328 10.2776 48.0742 10.2544 48.0139 10.257L47.9014 10.2619C47.855 10.264 47.8093 10.2507 47.7711 10.2243L47.6209 10.1201C47.595 10.1022 47.5655 10.0902 47.5345 10.0851L47.2931 10.0452C47.2415 10.0367 47.1949 10.0094 47.1621 9.96862L47.1258 9.92344C47.098 9.88879 47.06 9.86373 47.0172 9.85181L46.6062 9.73738M48.3787 10.529L48.348 10.1821C48.3459 10.1584 48.3398 10.1352 48.33 10.1134L48.2096 9.84681C48.2003 9.82619 48.1943 9.80422 48.192 9.78172L48.1454 9.34085M48.3787 10.529L48.5309 10.4144C48.5548 10.3963 48.5747 10.3734 48.5892 10.3471L48.8171 9.93302" stroke="#FB8500" stroke-width="0.106195" stroke-linecap="round"/>
<path d="M46.2822 10.1119L45.9821 10.0769M46.273 10.3435L45.7627 10.3465M47.8635 8.82936L47.9078 8.2977M48.0479 8.85984L48.057 8.62828M49.4767 10.2614L49.4478 9.81965" stroke="#FB8500" stroke-width="0.106195" stroke-linecap="round"/>
<path d="M33.6251 5.31188L33.9236 5.49266L33.9338 5.46275C33.9785 5.33261 34.1333 5.27868 34.2492 5.35284L34.3047 5.38838L34.3965 5.21708C34.4317 5.15141 34.5219 5.14146 34.5705 5.19787L34.6975 5.34501L34.9084 5.06706L35.0922 5.36362L35.1289 5.33287C35.2315 5.24664 35.3874 5.27597 35.4518 5.3936L35.4792 5.44375L35.7657 5.24457L35.8489 5.58342L36.0238 5.49881C36.0909 5.46637 36.1697 5.51129 36.1759 5.58554L36.1921 5.77921L36.5261 5.67831L36.5005 6.02628L36.5644 6.02563C36.7004 6.02426 36.8026 6.1493 36.7742 6.28233L36.7665 6.31856L36.9608 6.3226C37.0353 6.32414 37.0851 6.39992 37.0569 6.4689L36.9835 6.64884L37.1747 6.68322C37.2481 6.69641 37.2854 6.77904 37.2468 6.84277L37.1461 7.009L37.2064 7.03962C37.3327 7.10369 37.3621 7.27104 37.2652 7.37431L37.2504 7.39016L37.4217 7.48197C37.4873 7.51717 37.4973 7.60729 37.4409 7.65597L37.2937 7.78294L37.5717 7.99385L37.2751 8.17767L37.3144 8.2293C37.4042 8.34743 37.3482 8.51887 37.2061 8.56133L37.195 8.56464L37.3942 8.85111L37.0553 8.9343L37.0766 8.99075C37.1305 9.1335 37.0208 9.28483 36.8684 9.27796L36.8595 9.27756L36.9157 9.46361C36.9373 9.53493 36.8806 9.60569 36.8063 9.60023L36.6125 9.58597L36.6167 9.64028C36.629 9.79593 36.4748 9.91118 36.329 9.85531L36.3202 9.85193L36.3129 10.2008L35.9899 10.0689L35.9555 10.2602C35.9423 10.3335 35.8597 10.3708 35.796 10.3322L35.6297 10.2315L35.5151 10.561L35.2486 10.3358V10.3358C35.2012 10.4826 35.0172 10.5302 34.9046 10.4248L34.8558 10.3792L34.6449 10.6571L34.4611 10.3606L34.3208 10.4951C34.267 10.5467 34.1783 10.5283 34.1494 10.4596L34.0741 10.2804L34.0353 10.3036C33.9242 10.3701 33.7799 10.3224 33.7302 10.2028L33.7044 10.1408L33.3903 10.2927L33.3612 9.94497L33.1751 10.0012C33.1038 10.0227 33.0331 9.96603 33.0385 9.89172L33.0528 9.6979V9.6979C32.9431 9.76402 32.8024 9.68958 32.7954 9.56166L32.7868 9.40562L32.5925 9.40158C32.518 9.40003 32.4682 9.32425 32.4964 9.25527L32.5699 9.07534L32.5302 9.06455C32.4153 9.03326 32.3486 8.91363 32.3823 8.79943L32.4072 8.71518L32.2237 8.6513C32.1533 8.6268 32.1294 8.53935 32.1775 8.48245L32.3029 8.33402L32.2633 8.30862C32.1549 8.23916 32.1328 8.09003 32.2163 7.99206L32.2596 7.94124L32.1048 7.82376C32.0454 7.77872 32.0497 7.68815 32.113 7.6489L32.2782 7.5465L32.1436 7.40625C32.0921 7.35248 32.1104 7.2637 32.1791 7.23483L32.3583 7.15954L32.329 7.0997C32.2725 6.9841 32.3309 6.84517 32.4531 6.80474L32.498 6.78988L32.3461 6.47577L32.6938 6.44662L32.5929 6.11261L32.9408 6.13821L32.9444 6.06201C32.9506 5.92729 33.0792 5.83241 33.2097 5.8662L33.2331 5.87225L33.2404 5.52341L33.5634 5.65529L33.6251 5.31188Z" fill="white"/>
<path d="M35.6117 8.50749L35.6177 8.78833C35.6185 8.82568 35.6095 8.86258 35.5914 8.8953L35.5197 9.02573C35.5028 9.05632 35.4938 9.09058 35.4933 9.12549L35.4904 9.35821M35.6117 8.50749L35.3134 8.59093C35.2918 8.59697 35.2713 8.60642 35.2526 8.6189L35.0681 8.7422C35.0358 8.76381 34.9982 8.77613 34.9594 8.77782L34.803 8.78465C34.7619 8.78644 34.7221 8.80017 34.6886 8.82416L34.5547 8.92006C34.5351 8.93408 34.5133 8.94467 34.4902 8.95138L34.2214 9.02933C34.1897 9.03851 34.1606 9.05494 34.1364 9.07732L33.9325 9.26569M35.6117 8.50749L35.4081 8.29924C35.3658 8.25607 35.3073 8.23291 35.2469 8.23554L35.1344 8.24045C35.0881 8.24248 35.0423 8.22925 35.0041 8.2028L34.8539 8.09863C34.828 8.08071 34.7986 8.06875 34.7675 8.06362L34.5261 8.0237C34.4745 8.01517 34.4279 7.98791 34.3951 7.94714L34.3589 7.90196C34.331 7.8673 34.293 7.84225 34.2502 7.83033L33.8392 7.7159M35.6117 8.50749L35.581 8.16066C35.5789 8.13691 35.5728 8.11368 35.563 8.09195L35.4426 7.82533C35.4333 7.80471 35.4274 7.78273 35.425 7.76023L35.3784 7.31937M35.6117 8.50749L35.7639 8.39287C35.7879 8.37482 35.8077 8.3519 35.8222 8.32562L36.0501 7.91154" stroke="#FB8500" stroke-width="0.106195" stroke-linecap="round"/>
<path d="M33.5152 8.09046L33.2151 8.05541M33.5061 8.32202L32.9957 8.32503M35.0966 6.80787L35.1408 6.27622M35.2809 6.83835L35.2901 6.6068M36.7097 8.23995L36.6808 7.79817" stroke="#FB8500" stroke-width="0.106195" stroke-linecap="round"/>
<path d="M27.7928 21.4451L28.0142 21.5793V21.5793C28.0513 21.4714 28.1795 21.4267 28.2756 21.4882L28.297 21.5019L28.3463 21.4099C28.3815 21.3442 28.4717 21.3343 28.5203 21.3907L28.5885 21.4697L28.745 21.2634L28.8814 21.4835V21.4835C28.9717 21.4077 29.1087 21.4335 29.1652 21.5369L29.1686 21.543L29.3811 21.3952L29.4429 21.6466L29.5368 21.6012C29.6039 21.5687 29.6826 21.6137 29.6888 21.6879L29.6976 21.7919L29.9454 21.717L29.9264 21.9752L29.9463 21.975C30.0613 21.9739 30.1478 22.0796 30.1238 22.1921V22.1921L30.2281 22.1943C30.3026 22.1958 30.3524 22.2716 30.3242 22.3406L30.2848 22.4372L30.3875 22.4556C30.4608 22.4688 30.4981 22.5515 30.4595 22.6152L30.4054 22.7044L30.4358 22.7199C30.5367 22.7711 30.5602 22.9048 30.4828 22.9873V22.9873L30.5748 23.0366C30.6405 23.0718 30.6504 23.1619 30.594 23.2106L30.515 23.2787L30.7213 23.4352L30.5012 23.5716L30.5251 23.6031C30.5943 23.6941 30.5512 23.8261 30.4417 23.8588V23.8588L30.5895 24.0714L30.3381 24.1331L30.3516 24.1688C30.3927 24.2777 30.309 24.393 30.1928 24.3878V24.3878L30.223 24.4877C30.2445 24.559 30.1878 24.6298 30.1135 24.6243L30.0095 24.6167L30.0121 24.65C30.0215 24.7687 29.9038 24.8566 29.7926 24.814V24.814L29.7872 25.0729L29.5475 24.975L29.5291 25.0777C29.5159 25.151 29.4332 25.1883 29.3695 25.1497L29.2803 25.0957L29.1952 25.3402L28.9974 25.1731V25.1731C28.9623 25.282 28.8257 25.3173 28.7422 25.2391L28.706 25.2052L28.5495 25.4115L28.4131 25.1914L28.3378 25.2637C28.284 25.3152 28.1952 25.2969 28.1663 25.2282L28.1259 25.132V25.132C28.0283 25.1904 27.9015 25.1485 27.8579 25.0434L27.8516 25.0283L27.6185 25.141L27.5969 24.883L27.497 24.9132C27.4257 24.9348 27.3549 24.8781 27.3604 24.8038L27.368 24.6997V24.6997C27.2866 24.7488 27.1823 24.6935 27.1771 24.5986L27.1707 24.4828L27.0664 24.4807C26.9919 24.4791 26.9421 24.4033 26.9703 24.3344L27.0097 24.2377V24.2377C26.9083 24.2101 26.8494 24.1046 26.8792 24.0038L26.889 23.9705L26.7905 23.9362C26.7201 23.9117 26.6962 23.8243 26.7443 23.7673L26.8116 23.6877V23.6877C26.7157 23.6261 26.696 23.4941 26.77 23.4073L26.7795 23.3962L26.6963 23.3331C26.637 23.2881 26.6413 23.1975 26.7046 23.1583L26.7933 23.1033L26.721 23.028C26.6695 22.9742 26.6878 22.8854 26.7565 22.8566L26.8527 22.8161L26.8464 22.8033C26.7963 22.7008 26.8481 22.5777 26.9564 22.5418V22.5418L26.8437 22.3088L27.1017 22.2871L27.0268 22.0393L27.285 22.0583L27.2868 22.0196C27.2918 21.9104 27.396 21.8335 27.5019 21.8609V21.8609L27.5073 21.6021L27.747 21.6999L27.7928 21.4451Z" fill="white"/>
<path d="M29.2668 23.817L29.271 24.0107C29.2718 24.0481 29.2627 24.085 29.2447 24.1177L29.2051 24.1896C29.1883 24.2202 29.1793 24.2544 29.1788 24.2893L29.1768 24.4483M29.2668 23.817L29.0539 23.8766C29.0323 23.8827 29.0117 23.8921 28.9931 23.9046L28.8762 23.9827C28.8439 24.0043 28.8063 24.0166 28.7674 24.0183L28.683 24.022C28.6419 24.0238 28.6021 24.0375 28.5686 24.0615L28.4901 24.1177C28.4706 24.1317 28.4487 24.1423 28.4256 24.149L28.2476 24.2007C28.2159 24.2098 28.1868 24.2263 28.1626 24.2487L28.0208 24.3797M29.2668 23.817L29.1328 23.68C29.0906 23.6368 29.032 23.6137 28.9717 23.6163L28.9311 23.6181C28.8847 23.6201 28.839 23.6069 28.8008 23.5804L28.7146 23.5207C28.6888 23.5028 28.6593 23.4908 28.6283 23.4857L28.4819 23.4615C28.4304 23.4529 28.3837 23.4257 28.351 23.3849L28.3482 23.3815C28.3204 23.3468 28.2824 23.3218 28.2396 23.3098L27.9516 23.2297M29.2668 23.817L29.2449 23.5689C29.2428 23.5452 29.2367 23.522 29.2269 23.5002L29.145 23.3189C29.1357 23.2983 29.1297 23.2763 29.1274 23.2538L29.0937 22.9354M29.2668 23.817L29.3704 23.7391C29.3943 23.721 29.4142 23.6981 29.4287 23.6718L29.5921 23.3748" stroke="#FB8500" stroke-width="0.106195" stroke-linecap="round"/>
<path d="M27.7113 23.5054L27.4886 23.4794M27.7045 23.6773L27.3258 23.6795M28.8847 22.5537L28.9175 22.1592M29.0215 22.5763L29.0283 22.4045M30.0817 23.6164L30.0603 23.2885" stroke="#FB8500" stroke-width="0.106195" stroke-linecap="round"/>
<path d="M57.246 35.8411L57.0228 35.7099V35.7099C56.9871 35.8182 56.8595 35.8646 56.7626 35.8044L56.741 35.791L56.6929 35.8836C56.6586 35.9497 56.5686 35.9608 56.5192 35.9051L56.45 35.827L56.2962 36.0353L56.1569 35.817V35.817C56.0677 35.894 55.9303 35.87 55.8724 35.7674L55.869 35.7613L55.6584 35.9119L55.5934 35.6613L55.5 35.708C55.4334 35.7413 55.354 35.6974 55.3468 35.6233L55.3368 35.5194L55.0899 35.5975L55.1055 35.3391L55.0857 35.3395C54.9707 35.3422 54.8828 35.2376 54.9053 35.1248V35.1248L54.801 35.124C54.7265 35.1234 54.6757 35.0483 54.703 34.979L54.7411 34.8819L54.6382 34.8648C54.5647 34.8525 54.5263 34.7704 54.5641 34.7062L54.617 34.6162L54.5864 34.6012C54.4848 34.5513 54.4596 34.418 54.5359 34.3344V34.3344L54.4433 34.2864C54.3771 34.252 54.366 34.162 54.4218 34.1126L54.4998 34.0434L54.2916 33.8896L54.5098 33.7504L54.4855 33.7192C54.4151 33.6291 54.4565 33.4966 54.5655 33.4625V33.4625L54.4149 33.2518L54.6655 33.1868L54.6515 33.1513C54.609 33.043 54.6912 32.9265 54.8074 32.9302V32.9302L54.7759 32.8307C54.7535 32.7597 54.8092 32.6882 54.8836 32.6927L54.9877 32.699L54.9847 32.6657C54.9738 32.5471 55.0902 32.4576 55.202 32.4988V32.4988L55.204 32.2399L55.445 32.3346L55.4621 32.2317C55.4743 32.1582 55.5564 32.1198 55.6207 32.1575L55.7106 32.2104L55.7925 31.9648L55.9924 32.1293V32.1293C56.0261 32.0199 56.1622 31.9828 56.2468 32.0599L56.2834 32.0933L56.4372 31.885L56.5765 32.1033L56.6508 32.03C56.7039 31.9778 56.7929 31.995 56.8227 32.0633L56.8644 32.1589V32.1589C56.9613 32.0993 57.0885 32.1395 57.1336 32.244L57.14 32.259L57.3716 32.1432L57.3966 32.4009L57.4961 32.3694C57.5671 32.3469 57.6386 32.4027 57.6341 32.477L57.6279 32.5812V32.5812C57.7086 32.5311 57.8137 32.5849 57.8202 32.6798L57.828 32.7955L57.9324 32.7963C58.0069 32.7968 58.0577 32.872 58.0304 32.9413L57.9922 33.0384V33.0384C58.094 33.0647 58.1543 33.1695 58.1258 33.2706L58.1164 33.3041L58.2154 33.3371C58.2861 33.3606 58.3112 33.4478 58.2638 33.5053L58.1975 33.5859V33.5859C58.2943 33.6461 58.3156 33.7779 58.2429 33.8656L58.2335 33.8769L58.3175 33.9388C58.3774 33.9831 58.3743 34.0737 58.3115 34.1138L58.2236 34.1699L58.2968 34.2443C58.3491 34.2974 58.3318 34.3864 58.2635 34.4161L58.1679 34.4578L58.1744 34.4706C58.2258 34.5724 58.1757 34.6962 58.0679 34.7335V34.7335L58.1836 34.965L57.9259 34.9901L58.0041 35.2369L57.7456 35.2213L57.7443 35.26C57.7407 35.3692 57.6375 35.4475 57.5314 35.4215V35.4215L57.5294 35.6804L57.2884 35.5857L57.246 35.8411Z" fill="white"/>
<path d="M55.7408 33.4884L55.7341 33.2948C55.7328 33.2575 55.7413 33.2204 55.7589 33.1875L55.7975 33.1151C55.814 33.0843 55.8226 33.0499 55.8225 33.015L55.8224 32.856M55.7408 33.4884L55.9529 33.426C55.9744 33.4197 55.9948 33.41 56.0133 33.3973L56.1291 33.3176C56.1612 33.2956 56.1986 33.2828 56.2374 33.2806L56.3218 33.2758C56.3629 33.2735 56.4025 33.2592 56.4357 33.2348L56.5134 33.1775C56.5328 33.1633 56.5545 33.1524 56.5775 33.1454L56.7549 33.0914C56.7864 33.0818 56.8153 33.065 56.8392 33.0423L56.9793 32.9095M55.7408 33.4884L55.8765 33.6237C55.9193 33.6663 55.9782 33.6887 56.0385 33.6852L56.0791 33.6829C56.1254 33.6803 56.1713 33.6929 56.2098 33.7189L56.2968 33.7775C56.3229 33.7951 56.3525 33.8066 56.3836 33.8114L56.5302 33.8336C56.5819 33.8415 56.6289 33.8681 56.6622 33.9085L56.665 33.9119C56.6933 33.9462 56.7316 33.9707 56.7746 33.9821L57.0636 34.0584M55.7408 33.4884L55.766 33.7362C55.7684 33.7599 55.7748 33.7831 55.7849 33.8047L55.8691 33.9849C55.8787 34.0054 55.8849 34.0273 55.8876 34.0498L55.9254 34.3677M55.7408 33.4884L55.6382 33.5677C55.6145 33.5861 55.5949 33.6093 55.5808 33.6358L55.4213 33.9349" stroke="#FB8500" stroke-width="0.106195" stroke-linecap="round"/>
<path d="M57.3004 33.779L57.5234 33.8021M57.3049 33.6071L57.6835 33.5999M56.1396 34.7461L56.112 35.141M56.0025 34.7253L55.998 34.8972M54.9287 33.6993L54.9544 34.0268" stroke="#FB8500" stroke-width="0.106195" stroke-linecap="round"/>
<path d="M17.6814 57.0918C17.1717 56.1573 16.4708 55.4457 15.5788 54.9573C14.6867 54.4688 13.646 54.2245 12.4566 54.2245C11.1398 54.2245 9.97168 54.5219 8.95221 55.1165C7.93274 55.7112 7.13628 56.5608 6.56283 57.6652C5.98938 58.7696 5.70266 60.044 5.70266 61.4882C5.70266 62.975 5.98938 64.2705 6.56283 65.375C7.15752 66.4794 7.97522 67.3289 9.01593 67.9236C10.0566 68.5183 11.2673 68.8157 12.6478 68.8157C14.3469 68.8157 15.7381 68.3696 16.8212 67.4776C17.9044 66.5643 18.6159 65.3006 18.9558 63.6865H11.3097V60.2776H23.3522V64.1643C23.0549 65.7148 22.4177 67.1484 21.4407 68.4652C20.4637 69.782 19.2 70.844 17.6496 71.6511C16.1204 72.4369 14.4 72.8298 12.4885 72.8298C10.3434 72.8298 8.4 72.3519 6.65841 71.3962C4.93805 70.4192 3.57876 69.0705 2.58053 67.3502C1.60354 65.6298 1.11504 63.6758 1.11504 61.4882C1.11504 59.3006 1.60354 57.3466 2.58053 55.6263C3.57876 53.8847 4.93805 52.536 6.65841 51.5803C8.4 50.6033 10.3327 50.1148 12.4566 50.1148C14.9628 50.1148 17.1398 50.7307 18.9876 51.9626C20.8354 53.1732 22.1097 54.8829 22.8106 57.0918H17.6814ZM72.5003 57.0918C71.9906 56.1573 71.2897 55.4457 70.3976 54.9573C69.5056 54.4688 68.4649 54.2245 67.2755 54.2245C65.9587 54.2245 64.7906 54.5219 63.7711 55.1165C62.7516 55.7112 61.9552 56.5608 61.3817 57.6652C60.8083 58.7696 60.5215 60.044 60.5215 61.4882C60.5215 62.975 60.8083 64.2705 61.3817 65.375C61.9764 66.4794 62.7941 67.3289 63.8348 67.9236C64.8755 68.5183 66.0861 68.8157 67.4667 68.8157C69.1658 68.8157 70.5569 68.3696 71.6401 67.4776C72.7233 66.5643 73.4348 65.3006 73.7746 63.6865H66.1286V60.2776H78.1711V64.1643C77.8737 65.7148 77.2366 67.1484 76.2596 68.4652C75.2826 69.782 74.0189 70.844 72.4684 71.6511C70.9392 72.4369 69.2189 72.8298 67.3074 72.8298C65.1622 72.8298 63.2189 72.3519 61.4773 71.3962C59.7569 70.4192 58.3976 69.0705 57.3994 67.3502C56.4224 65.6298 55.9339 63.6758 55.9339 61.4882C55.9339 59.3006 56.4224 57.3466 57.3994 55.6263C58.3976 53.8847 59.7569 52.536 61.4773 51.5803C63.2189 50.6033 65.1516 50.1148 67.2755 50.1148C69.7817 50.1148 71.9587 50.7307 73.8065 51.9626C75.6543 53.1732 76.9286 54.8829 77.6295 57.0918H72.5003ZM92.9399 72.6387L88.0338 63.9732H85.9311V72.6387H81.4709V50.4015H89.8178C91.5382 50.4015 93.0037 50.7095 94.2143 51.3254C95.4249 51.9201 96.3276 52.7378 96.9223 53.7785C97.5382 54.798 97.8461 55.9449 97.8461 57.2192C97.8461 58.6847 97.4214 60.0121 96.5718 61.2015C95.7223 62.3696 94.4585 63.1767 92.7807 63.6227L98.101 72.6387H92.9399ZM85.9311 60.6281H89.6585C90.8692 60.6281 91.7718 60.3413 92.3665 59.7679C92.9612 59.1732 93.2585 58.3555 93.2585 57.3148C93.2585 56.2953 92.9612 55.5095 92.3665 54.9573C91.7718 54.3838 90.8692 54.0971 89.6585 54.0971H85.9311V60.6281ZM106.34 54.0015V59.5767H113.827V63.113H106.34V69.0068H114.783V72.6387H101.88V50.3696H114.783V54.0015H106.34ZM123.296 54.0015V59.5767H130.783V63.113H123.296V69.0068H131.739V72.6387H118.836V50.3696H131.739V54.0015H123.296ZM154.811 72.6387H150.351L140.252 57.3785V72.6387H135.792V50.3696H140.252L150.351 65.6617V50.3696H154.811V72.6387Z" fill="#454545"/>
</svg>
