<svg width="620" height="140" viewBox="0 0 620 140" fill="none" xmlns="http://www.w3.org/2000/svg">
<g filter="url(#filter0_d_116_1298)">
<circle cx="70" cy="70" r="50" fill="white"/>
<path d="M70 50.4913C76.6667 50.4913 77.5 50.4913 80.2083 50.6841C87.0833 50.8769 90.2083 53.9614 90.4167 60.1306C90.625 62.6368 90.625 63.2152 90.625 69.3843C90.625 75.5535 90.625 76.3246 90.4167 78.6381C90.2083 84.8072 86.875 87.8918 80.2083 88.0846C77.5 88.2774 76.875 88.2774 70 88.2774C63.3333 88.2774 62.5 88.2774 60 88.0846C53.125 87.8918 50 84.8072 49.7917 78.6381C49.5833 76.1318 49.5833 75.5535 49.5833 69.3843C49.5833 63.2152 49.5833 62.444 49.7917 60.1306C50 53.9614 53.3333 50.8769 60 50.6841C62.5 50.4913 63.3333 50.4913 70 50.4913ZM70 46.25C63.125 46.25 62.2917 46.25 59.7917 46.4428C50.625 46.8284 45.625 51.4552 45.2083 59.9378C45 62.2512 45 63.0224 45 69.3843C45 75.7463 45 76.5174 45.2083 78.8308C45.625 87.3134 50.625 91.9403 59.7917 92.3259C62.2917 92.5187 63.125 92.5187 70 92.5187C76.875 92.5187 77.7083 92.5187 80.2083 92.3259C89.375 91.9403 94.375 87.3134 94.7917 78.8308C95 76.5174 95 75.7463 95 69.3843C95 63.0224 95 62.2512 94.7917 59.9378C94.375 51.4552 89.375 46.8284 80.2083 46.4428C77.7083 46.25 76.875 46.25 70 46.25ZM70 57.4316C62.9167 57.4316 57.0833 62.8296 57.0833 69.3843C57.0833 75.9391 62.9167 81.3371 70 81.3371C77.0833 81.3371 82.9167 75.9391 82.9167 69.3843C82.9167 62.8296 77.0833 57.4316 70 57.4316ZM70 77.0958C65.4167 77.0958 61.6667 73.6256 61.6667 69.3843C61.6667 65.143 65.4167 61.6729 70 61.6729C74.5833 61.6729 78.3333 65.143 78.3333 69.3843C78.3333 73.6256 74.5833 77.0958 70 77.0958ZM83.3333 54.347C81.6667 54.347 80.4167 55.5037 80.4167 57.046C80.4167 58.5883 81.6667 59.745 83.3333 59.745C85 59.745 86.25 58.5883 86.25 57.046C86.25 55.5037 85 54.347 83.3333 54.347Z" fill="#34A853"/>
<circle cx="230" cy="70" r="50" fill="white"/>
<path d="M216.667 51.1413C216.667 53.8804 214.375 56.0326 211.458 56.0326C208.542 56.0326 206.25 53.8804 206.25 51.1413C206.25 48.4022 208.542 46.25 211.458 46.25C214.375 46.25 216.667 48.4022 216.667 51.1413ZM216.667 59.9457H206.25V91.25H216.667V59.9457ZM233.333 59.9457H222.917V91.25H233.333V74.8152C233.333 65.6196 245.833 64.837 245.833 74.8152V91.25H256.25V71.4891C256.25 56.0326 237.708 56.6196 233.333 64.25V59.9457Z" fill="#34A853"/>
<circle cx="390" cy="70" r="50" fill="white"/>
<path d="M382.188 61.25H375V70H382.188V96.25H394.167V70H402.792L403.75 61.25H394.167V57.5312C394.167 55.5625 394.646 54.6875 396.802 54.6875H403.75V43.75H394.646C386.021 43.75 382.188 47.25 382.188 53.8125V61.25Z" fill="#34A853"/>
<circle cx="550" cy="70" r="50" fill="white"/>
<path d="M573.96 61.4832C573.677 60.4733 573.125 59.559 572.364 58.8374C571.581 58.0937 570.622 57.5617 569.576 57.2916C565.664 56.2603 549.989 56.2603 549.989 56.2603C543.454 56.186 536.921 56.513 530.426 57.2395C529.381 57.5295 528.423 58.0734 527.639 58.8228C526.868 59.5645 526.31 60.4791 526.018 61.4812C525.317 65.2556 524.977 69.0881 525.001 72.927C524.976 76.7624 525.316 80.5937 526.018 84.3728C526.303 85.3707 526.86 86.2812 527.633 87.0166C528.405 87.752 529.368 88.2832 530.426 88.5645C534.391 89.5937 549.989 89.5937 549.989 89.5937C556.532 89.6681 563.073 89.3411 569.576 88.6145C570.622 88.3444 571.581 87.8124 572.364 87.0687C573.125 86.3473 573.676 85.4328 573.958 84.4228C574.676 80.6498 575.026 76.8157 575.001 72.9749C575.055 69.1178 574.706 65.2657 573.96 61.4812V61.4832ZM545.005 80.0603V65.7957L558.047 72.9291L545.005 80.0603Z" fill="#34A853"/>
</g>
<defs>
<filter id="filter0_d_116_1298" x="0" y="0" width="625" height="140" filterUnits="userSpaceOnUse" color-interpolation-filters="sRGB">
<feFlood flood-opacity="0" result="BackgroundImageFix"/>
<feColorMatrix in="SourceAlpha" type="matrix" values="0 0 0 0 0 0 0 0 0 0 0 0 0 0 0 0 0 0 127 0" result="hardAlpha"/>
<feOffset/>
<feGaussianBlur stdDeviation="10"/>
<feComposite in2="hardAlpha" operator="out"/>
<feColorMatrix type="matrix" values="0 0 0 0 0.596078 0 0 0 0 0.596078 0 0 0 0 0.596078 0 0 0 0.3 0"/>
<feBlend mode="normal" in2="BackgroundImageFix" result="effect1_dropShadow_116_1298"/>
<feBlend mode="normal" in="SourceGraphic" in2="effect1_dropShadow_116_1298" result="shape"/>
</filter>
</defs>
</svg>
